<?xml version="1.0" encoding="utf-8"?>
<!-- Generator: Adobe Illustrator 24.2.0, SVG Export Plug-In . SVG Version: 6.00 Build 0)  -->
<svg version="1.1" id="Laag_1" xmlns="http://www.w3.org/2000/svg" xmlns:xlink="http://www.w3.org/1999/xlink" x="0px" y="0px"
	 viewBox="0 0 300 300" style="enable-background:new 0 0 300 300;" xml:space="preserve">
<style type="text/css">
	.st0{fill:none;}
	.st1{fill:#090F29;}
	.st2{opacity:0.2;fill:#384D68;}
	.st3{fill:url(#Nieuw_patroon);}
</style>
<pattern  width="100" height="100" patternUnits="userSpaceOnUse" id="Nieuw_patroon" viewBox="0 -100 100 100" style="overflow:visible;">
	<g>
		<rect id="rect1" y="-100" class="st0" width="100" height="100"/>
		<rect x="0" y="-100" class="st1" width="100" height="100"/>
		<path class="st2" d="M45.02-38.07c0.1-0.11,0.14-0.15,0.17-0.2c4.32-6.23,8.46-12.58,12.17-19.19c1.17-2.09,2.17-4.28,3.24-6.43
			c0.07-0.13,0.1-0.3,0.09-0.44c-0.22-2.52,0.06-5,0.75-7.42c0.26-0.92,0.66-1.85,1.2-2.64c1.22-1.79,3.52-1.55,4.49,0.39
			c0.52,1.04,0.51,2.13,0.3,3.23c-0.45,2.34-1.31,4.55-2.23,6.74c-0.14,0.33-0.17,0.63-0.08,0.98c0.79,3.17,1.97,6.17,3.57,9.02
			c1.39,2.47,2.82,4.93,3.88,7.57c0.91,2.27,1.32,4.64,1.5,7.06c0.17,2.24,0.11,4.47-0.24,6.69c-0.43,2.74-1.31,5.32-3.06,7.53
			c-1.53,1.94-3.6,2.93-6.03,3.13c-3.07,0.26-5.37-1.12-7.16-3.5c-1.22-1.63-2.11-3.44-2.74-5.37c-0.32-0.98,0.06-2.02,0.93-2.49
			c0.88-0.48,1.96-0.29,2.59,0.54c0.29,0.39,0.52,0.85,0.67,1.31c0.41,1.33,1.14,2.48,1.92,3.61c1.99,2.89,5.5,1.88,6.84-0.13
			c1.05-1.57,1.67-3.31,1.94-5.15c0.47-3.33,0.4-6.66-0.41-9.94c-0.41-1.64-1.14-3.15-1.94-4.64c-1.36-2.54-2.71-5.08-4.03-7.65
			c-0.4-0.79-0.67-1.64-1.02-2.5c-0.06,0.07-0.11,0.12-0.14,0.19c-2.48,4.6-5.25,9.02-8.14,13.36c-2.29,3.45-4.67,6.85-7.08,10.21
			c-1.69,2.35-3.38,4.73-5.31,6.88C39.44-24.84,37.08-22.47,34-21c-1.96,0.94-3.99,1.54-6.2,1.5c-3.62-0.07-6.6-2.58-7.25-6.14
			c-0.48-2.61-0.02-5.1,1.01-7.49c2.18-5.03,5.72-8.77,10.74-11.04c1.68-0.76,3.45-1.12,5.31-1.09c3.63,0.07,6.62,2.61,7.24,6.19
			C44.91-38.76,44.96-38.45,45.02-38.07z"/>
	</g>
</pattern>
<rect class="st3" width="300" height="300"/>
</svg>
