<svg xmlns="http://www.w3.org/2000/svg" viewBox="0 0 48 48"><defs><style>.cls-1{fill:none;stroke:#f5dd47;stroke-miterlimit:10;}.cls-2{fill:#f5dd47;}</style></defs><g id="Shopping_Cart" data-name="Shopping Cart"><circle class="cls-1" cx="23.5" cy="23.5" r="19"/><path id="Icon_awesome-volume-up" data-name="Icon awesome-volume-up" class="cls-2" d="M20.75,17.25l-3,3H14.27a.81.81,0,0,0-.81.81h0V26a.81.81,0,0,0,.81.81h3.46l3,3a.81.81,0,0,0,1.15,0,.78.78,0,0,0,.24-.58V17.83a.82.82,0,0,0-.81-.82A.83.83,0,0,0,20.75,17.25Zm7.92-1.73a.82.82,0,1,0-.91,1.36h0a7.93,7.93,0,0,1,0,13.27.82.82,0,0,0,.87,1.39l0,0a9.56,9.56,0,0,0,0-16Zm1.07,8a6.29,6.29,0,0,0-2.91-5.31.81.81,0,0,0-1.12.25h0A.82.82,0,0,0,26,19.61,4.64,4.64,0,0,1,27.39,26,4.44,4.44,0,0,1,26,27.44a.82.82,0,0,0-.25,1.13.81.81,0,0,0,1.12.26h0a6.25,6.25,0,0,0,2.91-5.3Zm-4.81-2.61a.81.81,0,0,0-.78,1.42h0a1.34,1.34,0,0,1,.55,1.81,1.41,1.41,0,0,1-.55.56.81.81,0,0,0,.78,1.42,3,3,0,0,0,0-5.21Z"/></g></svg>